<?xml version="1.0" standalone="no"?>
<!DOCTYPE svg PUBLIC "-//W3C//DTD SVG 20010904//EN"
 "http://www.w3.org/TR/2001/REC-SVG-20010904/DTD/svg10.dtd">
<svg version="1.0" xmlns="http://www.w3.org/2000/svg"
 width="45.000000pt" height="45.000000pt" viewBox="0 0 45.000000 45.000000"
 preserveAspectRatio="xMidYMid meet">

<g transform="translate(0.000000,45.000000) scale(0.100000,-0.100000)"
fill="#000000" stroke="none">
<path d="M132 368 c-43 -34 -83 -83 -109 -132 -15 -28 -14 -31 5 -46 14 -12
17 -21 11 -31 -18 -29 -9 -47 29 -60 20 -7 40 -12 45 -11 4 1 7 -2 7 -7 0 -17
50 -22 66 -6 19 19 18 19 83 -5 62 -24 66 -23 131 65 43 59 56 98 36 114 -7 6
-11 22 -8 36 4 21 0 25 -19 25 -31 1 -74 25 -74 41 0 8 -12 14 -27 16 -14 1
-40 9 -57 17 -45 24 -74 20 -119 -16z m164 -105 c-3 -42 -6 -91 -6 -110 0 -33
-2 -34 -32 -31 -29 3 -33 7 -36 36 -3 25 -8 32 -24 32 -18 0 -20 -5 -15 -39 6
-45 -8 -56 -47 -41 -24 9 -25 12 -22 92 5 136 3 130 28 126 19 -2 24 -12 31
-55 5 -29 14 -53 20 -53 24 0 37 17 43 55 6 39 26 64 53 65 11 0 13 -15 7 -77z"/>
</g>
</svg>
